# xmcd
#
# Track frame offsets:
#  150
#  19906
#  36202
#  49235
#  67789
#  87090
#  103404
#  120254
#  136114
#  148462
#  169146
#  189632
#  212157
#  236051
#  246044
#
# Disc length: 3482 seconds
#
# Revision: 0
# Processed by: cddbd v1.5.1PL0 Copyright (c) Steve Scherf et al.
# Submitted via: Collectorz.com_Music_Collector 6.9
#
DISCID=d70d980f
DTITLE=Johnny Nicholas - Thrill on the Hill
DYEAR=2004
DGENRE=Blues
TTITLE0=Kind Hearted Woman
TTITLE1=House Cleaning Blues
TTITLE2=My Rice Ain't Got No Gravy
TTITLE3=Prince Charming
TTITLE4=Blue and Lonesome
TTITLE5=Mandolin Boogie
TTITLE6=John the Revelator
TTITLE7=Sleeping With the Devil
TTITLE8=Let's Go to Big Houston
TTITLE9=Tomorrow Night
TTITLE10=Johnny's Deathray Boogie/Thrill on the Hill
TTITLE11=Mandolin Moan
TTITLE12=Stones in My Pathway
TTITLE13=Thinkin' Bout Junior
TTITLE14=Phonograph Blues
EXTD=
EXTT0=
EXTT1=
EXTT2=
EXTT3=
EXTT4=
EXTT5=
EXTT6=
EXTT7=
EXTT8=
EXTT9=
EXTT10=
EXTT11=
EXTT12=
EXTT13=
EXTT14=
PLAYORDER=
